  0
SECTION
  2
HEADER
  9
$ACADVER
  1
AC1009
  9
$DWGCODEPAGE
  3
ansi_1252
  9
$INSBASE
 10
0.0
 20
0.0
 30
0.0
  9
$EXTMIN
 10
521.7380500003512
 20
1160.592150000234
 30
0.0
  9
$EXTMAX
 10
697.4619499996487
 20
1277.807849999766
 30
0.0
  9
$LIMMIN
 10
0.0
 20
0.0
  9
$LIMMAX
 10
12.0
 20
9.0
  9
$ORTHOMODE
 70
     0
  9
$REGENMODE
 70
     1
  9
$FILLMODE
 70
     1
  9
$QTEXTMODE
 70
     0
  9
$MIRRTEXT
 70
     1
  9
$DRAGMODE
 70
     2
  9
$LTSCALE
 40
1.0
  9
$OSMODE
 70
    37
  9
$ATTMODE
 70
     1
  9
$TEXTSIZE
 40
0.2
  9
$TRACEWID
 40
0.05
  9
$TEXTSTYLE
  7
STANDARD
  9
$CLAYER
  8
0
  9
$CELTYPE
  6
BYLAYER
  9
$CECOLOR
 62
   256
  9
$DIMSCALE
 40
1.0
  9
$DIMASZ
 40
0.18
  9
$DIMEXO
 40
0.0625
  9
$DIMDLI
 40
0.38
  9
$DIMRND
 40
0.0
  9
$DIMDLE
 40
0.0
  9
$DIMEXE
 40
0.18
  9
$DIMTP
 40
0.0
  9
$DIMTM
 40
0.0
  9
$DIMTXT
 40
0.18
  9
$DIMCEN
 40
0.09
  9
$DIMTSZ
 40
0.0
  9
$DIMTOL
 70
     0
  9
$DIMLIM
 70
     0
  9
$DIMTIH
 70
     1
  9
$DIMTOH
 70
     1
  9
$DIMSE1
 70
     0
  9
$DIMSE2
 70
     0
  9
$DIMTAD
 70
     0
  9
$DIMZIN
 70
     0
  9
$DIMBLK
  1

  9
$DIMASO
 70
     1
  9
$DIMSHO
 70
     1
  9
$DIMPOST
  1

  9
$DIMAPOST
  1

  9
$DIMALT
 70
     0
  9
$DIMALTD
 70
     2
  9
$DIMALTF
 40
25.4
  9
$DIMLFAC
 40
1.0
  9
$DIMTOFL
 70
     0
  9
$DIMTVP
 40
0.0
  9
$DIMTIX
 70
     0
  9
$DIMSOXD
 70
     0
  9
$DIMSAH
 70
     0
  9
$DIMBLK1
  1

  9
$DIMBLK2
  1

  9
$DIMSTYLE
  2
STANDARD
  9
$DIMCLRD
 70
     0
  9
$DIMCLRE
 70
     0
  9
$DIMCLRT
 70
     0
  9
$DIMTFAC
 40
1.0
  9
$DIMGAP
 40
0.09
  9
$LUNITS
 70
     2
  9
$LUPREC
 70
     4
  9
$SKETCHINC
 40
0.1
  9
$FILLETRAD
 40
0.5
  9
$AUNITS
 70
     0
  9
$AUPREC
 70
     0
  9
$MENU
  1
.
  9
$ELEVATION
 40
0.0
  9
$PELEVATION
 40
0.0
  9
$THICKNESS
 40
0.0
  9
$LIMCHECK
 70
     0
  9
$CHAMFERA
 40
0.0
  9
$CHAMFERB
 40
0.0
  9
$SKPOLY
 70
     0
  9
$TDCREATE
 40
2454910.5
  9
$TDUPDATE
 40
2458944.885796979
  9
$TDINDWG
 40
0.0000000116
  9
$TDUSRTIMER
 40
0.0000000116
  9
$USRTIMER
 70
     1
  9
$ANGBASE
 50
0.0
  9
$ANGDIR
 70
     0
  9
$PDMODE
 70
     0
  9
$PDSIZE
 40
0.0
  9
$PLINEWID
 40
0.0
  9
$COORDS
 70
     1
  9
$SPLFRAME
 70
     0
  9
$SPLINETYPE
 70
     6
  9
$SPLINESEGS
 70
     8
  9
$ATTDIA
 70
     0
  9
$ATTREQ
 70
     1
  9
$HANDLING
 70
     1
  9
$HANDSEED
  5
293
  9
$SURFTAB1
 70
     6
  9
$SURFTAB2
 70
     6
  9
$SURFTYPE
 70
     6
  9
$SURFU
 70
     6
  9
$SURFV
 70
     6
  9
$UCSNAME
  2

  9
$UCSORG
 10
0.0
 20
0.0
 30
0.0
  9
$UCSXDIR
 10
1.0
 20
0.0
 30
0.0
  9
$UCSYDIR
 10
0.0
 20
1.0
 30
0.0
  9
$PUCSNAME
  2

  9
$PUCSORG
 10
0.0
 20
0.0
 30
0.0
  9
$PUCSXDIR
 10
1.0
 20
0.0
 30
0.0
  9
$PUCSYDIR
 10
0.0
 20
1.0
 30
0.0
  9
$USERI1
 70
     0
  9
$USERI2
 70
     0
  9
$USERI3
 70
     0
  9
$USERI4
 70
     0
  9
$USERI5
 70
     0
  9
$USERR1
 40
0.0
  9
$USERR2
 40
0.0
  9
$USERR3
 40
0.0
  9
$USERR4
 40
0.0
  9
$USERR5
 40
0.0
  9
$WORLDVIEW
 70
     1
  9
$SHADEDGE
 70
     3
  9
$SHADEDIF
 70
    70
  9
$TILEMODE
 70
     1
  9
$MAXACTVP
 70
    64
  9
$PLIMCHECK
 70
     0
  9
$PEXTMIN
 10
1.000000000000000E+20
 20
1.000000000000000E+20
 30
1.000000000000000E+20
  9
$PEXTMAX
 10
-1.000000000000000E+20
 20
-1.000000000000000E+20
 30
-1.000000000000000E+20
  9
$PLIMMIN
 10
0.0
 20
0.0
  9
$PLIMMAX
 10
12.0
 20
9.0
  9
$UNITMODE
 70
     0
  9
$VISRETAIN
 70
     1
  9
$PLINEGEN
 70
     0
  9
$PSLTSCALE
 70
     1
  0
ENDSEC
  0
SECTION
  2
TABLES
  0
TABLE
  2
VPORT
 70
     1
  0
VPORT
  2
*ACTIVE
 70
     0
 10
0.0
 20
0.0
 11
1.0
 21
1.0
 12
10.42990654205607
 22
4.5
 13
0.0
 23
0.0
 14
0.5
 24
0.5
 15
0.5
 25
0.5
 16
0.0
 26
0.0
 36
1.0
 17
0.0
 27
0.0
 37
0.0
 40
9.0
 41
1.972972972850329
 42
50.0
 43
0.0
 44
0.0
 50
0.0
 51
0.0
 71
     0
 72
   100
 73
     1
 74
     3
 75
     0
 76
     0
 77
     0
 78
     0
  0
ENDTAB
  0
TABLE
  2
LTYPE
 70
     2
  0
LTYPE
  2
CONTINUOUS
 70
     0
  3
Solid line
 72
    65
 73
     0
 40
0.0
  0
LTYPE
  2
CONTINUOUS2
 70
     0
  3
Solid Line
 72
    65
 73
     0
 40
0.0
  0
ENDTAB
  0
TABLE
  2
LAYER
 70
     1
  0
LAYER
  2
0
 70
     0
 62
     7
  6
CONTINUOUS
  0
ENDTAB
  0
TABLE
  2
STYLE
 70
     1
  0
STYLE
  2
STANDARD
 70
     0
 40
0.0
 41
1.0
 50
0.0
 71
     0
 42
0.2
  3
txt
  4

  0
ENDTAB
  0
TABLE
  2
VIEW
 70
     0
  0
ENDTAB
  0
TABLE
  2
UCS
 70
     0
  0
ENDTAB
  0
TABLE
  2
APPID
 70
     1
  0
APPID
  2
ACAD
 70
     0
  0
ENDTAB
  0
TABLE
  2
DIMSTYLE
 70
     1
  0
DIMSTYLE
  2
STANDARD
 70
     0
  3

  4

  5

  6

  7

 40
1.0
 41
0.18
 42
0.0625
 43
0.38
 44
0.18
 45
0.0
 46
0.0
 47
0.0
 48
0.0
140
0.18
141
0.09
142
0.0
143
25.4
144
1.0
145
0.0
146
1.0
147
0.09
 71
     0
 72
     0
 73
     1
 74
     1
 75
     0
 76
     0
 77
     0
 78
     0
170
     0
171
     2
172
     0
173
     0
174
     0
175
     0
176
     0
177
     0
178
     0
  0
ENDTAB
  0
ENDSEC
  0
SECTION
  2
BLOCKS
  0
BLOCK
  8
0
  2
$MODEL_SPACE
 70
     0
 10
0.0
 20
0.0
 30
0.0
  3
$MODEL_SPACE
  1

  0
ENDBLK
  5
21
  8
0
  0
BLOCK
 67
     1
  8
0
  2
$PAPER_SPACE
 70
     0
 10
0.0
 20
0.0
 30
0.0
  3
$PAPER_SPACE
  1

  0
ENDBLK
  5
1D
 67
     1
  8
0
  0
ENDSEC
  0
SECTION
  2
ENTITIES
  0
POLYLINE
  5
6F
  8
0
 66
     1
 10
0.0
 20
0.0
 30
0.0
 70
     1
  0
VERTEX
  5
7E
  8
0
 10
556.3167559562567
 20
1243.945401136174
 30
0.0
 42
-0.4142135623730953
  0
VERTEX
  5
7F
  8
0
 10
553.8067559562671
 20
1246.455401136163
 30
0.0
 42
-0.4142135623730984
  0
VERTEX
  5
80
  8
0
 10
556.3167559562568
 20
1248.965401136153
 30
0.0
 42
-0.4142135623730953
  0
VERTEX
  5
81
  8
0
 10
558.826755956247
 20
1246.455401136163
 30
0.0
 42
-0.4142135623730985
  0
SEQEND
  5
28B
  8
0
  0
POLYLINE
  5
70
  8
0
 66
     1
 10
0.0
 20
0.0
 30
0.0
 70
     1
  0
VERTEX
  5
82
  8
0
 10
573.8272541451795
 20
1258.056801663939
 30
0.0
 42
-0.4142135623730951
  0
VERTEX
  5
83
  8
0
 10
576.3372541451694
 20
1260.566801663929
 30
0.0
 42
-0.414213562373094
  0
VERTEX
  5
84
  8
0
 10
578.8472541451596
 20
1258.056801663938
 30
0.0
 42
-0.4142135623730936
  0
VERTEX
  5
85
  8
0
 10
576.3372541451693
 20
1255.546801663949
 30
0.0
 42
-0.4142135623730963
  0
SEQEND
  5
28C
  8
0
  0
POLYLINE
  5
71
  8
0
 66
     1
 10
0.0
 20
0.0
 30
0.0
 70
     1
  0
VERTEX
  5
86
  8
0
 10
607.0869470337124
 20
1262.765380886539
 30
0.0
 42
-0.4142135623730886
  0
VERTEX
  5
87
  8
0
 10
609.5969470337021
 20
1265.275380886529
 30
0.0
 42
-0.4142135623730976
  0
VERTEX
  5
88
  8
0
 10
612.1069470336922
 20
1262.765380886539
 30
0.0
 42
-0.414213562373096
  0
VERTEX
  5
89
  8
0
 10
609.596947033702
 20
1260.25538088655
 30
0.0
 42
-0.4142135623730954
  0
SEQEND
  5
28D
  8
0
  0
POLYLINE
  5
72
  8
0
 66
     1
 10
0.0
 20
0.0
 30
0.0
 70
     1
  0
VERTEX
  5
8A
  8
0
 10
642.8899609389275
 20
1260.734529955025
 30
0.0
 42
-0.4142135623730933
  0
VERTEX
  5
8B
  8
0
 10
645.3999609389174
 20
1258.224529955034
 30
0.0
 42
-0.414213562373095
  0
VERTEX
  5
8C
  8
0
 10
642.8899609389276
 20
1255.714529955044
 30
0.0
 42
-0.414213562373094
  0
VERTEX
  5
8D
  8
0
 10
640.3799609389373
 20
1258.224529955034
 30
0.0
 42
-0.4142135623730925
  0
SEQEND
  5
28E
  8
0
  0
POLYLINE
  5
73
  8
0
 66
     1
 10
0.0
 20
0.0
 30
0.0
 70
     1
  0
VERTEX
  5
8E
  8
0
 10
665.3932499997767
 20
1246.455449999891
 30
0.0
 42
-0.4142135623730978
  0
VERTEX
  5
8F
  8
0
 10
662.8832499997865
 20
1243.9454499999
 30
0.0
 42
-0.4142135623730926
  0
VERTEX
  5
90
  8
0
 10
660.3732499997967
 20
1246.455449999891
 30
0.0
 42
-0.4142135623730927
  0
VERTEX
  5
91
  8
0
 10
662.8832499997867
 20
1248.965449999882
 30
0.0
 42
-0.4142135623730946
  0
SEQEND
  5
28F
  8
0
  0
POLYLINE
  5
74
  8
0
 66
     1
 10
0.0
 20
0.0
 30
0.0
 70
     1
  0
VERTEX
  5
92
  8
0
 10
688.6534113953838
 20
1167.754304826106
 30
0.0
 42
-0.4142135623730944
  0
VERTEX
  5
93
  8
0
 10
691.1634113953738
 20
1170.264304826095
 30
0.0
 42
-0.4142135623730995
  0
VERTEX
  5
94
  8
0
 10
693.6734113953637
 20
1167.754304826105
 30
0.0
 42
-0.4142135623731025
  0
VERTEX
  5
95
  8
0
 10
691.1634113953739
 20
1165.244304826116
 30
0.0
 42
-0.4142135623730928
  0
SEQEND
  5
290
  8
0
  0
POLYLINE
  5
75
  8
0
 66
     1
 10
0.0
 20
0.0
 30
0.0
 70
     1
  0
VERTEX
  5
96
  8
0
 10
528.0365886046261
 20
1170.264304826096
 30
0.0
 42
-0.4142135623730984
  0
VERTEX
  5
97
  8
0
 10
530.5465886046162
 20
1167.754304826105
 30
0.0
 42
-0.4142135623730944
  0
VERTEX
  5
98
  8
0
 10
528.036588604626
 20
1165.244304826116
 30
0.0
 42
-0.4142135623730985
  0
VERTEX
  5
99
  8
0
 10
525.5265886046361
 20
1167.754304826105
 30
0.0
 42
-0.4142135623730944
  0
SEQEND
  5
291
  8
0
  0
POLYLINE
  5
76
  8
0
 66
     1
 10
0.0
 20
0.0
 30
0.0
 70
     1
  0
VERTEX
  5
9A
  8
0
 10
548.2693144826958
 20
1256.413704584653
 30
0.0
  0
VERTEX
  5
9B
  8
0
 10
548.4482367771487
 20
1256.494647693649
 30
0.0
  0
VERTEX
  5
9C
  8
0
 10
548.6317227630551
 20
1256.560879322851
 30
0.0
  0
VERTEX
  5
9D
  8
0
 10
548.818859011803
 20
1256.612399773121
 30
0.0
  0
VERTEX
  5
9E
  8
0
 10
549.0087320947805
 20
1256.649209345315
 30
0.0
  0
VERTEX
  5
9F
  8
0
 10
549.2004285833755
 20
1256.671308340296
 30
0.0
  0
VERTEX
  5
A0
  8
0
 10
549.3930350489759
 20
1256.678697058921
 30
0.0
  0
VERTEX
  5
A1
  8
0
 10
549.58563806297
 20
1256.671375802052
 30
0.0
  0
VERTEX
  5
A2
  8
0
 10
549.7773241967458
 20
1256.649344870547
 30
0.0
  0
VERTEX
  5
A3
  8
0
 10
549.9671800216911
 20
1256.612604565266
 30
0.0
  0
VERTEX
  5
A4
  8
0
 10
550.154292109194
 20
1256.561155187069
 30
0.0
  0
VERTEX
  5
A5
  8
0
 10
550.3377470306425
 20
1256.494997036815
 30
0.0
  0
VERTEX
  5
A6
  8
0
 10
550.5166313574246
 20
1256.414130415365
 30
0.0
  0
VERTEX
  5
A7
  8
0
 10
550.6900316609283
 20
1256.318555623576
 30
0.0
  0
VERTEX
  5
A8
  8
0
 10
550.8570345125416
 20
1256.20827296231
 30
0.0
  0
VERTEX
  5
A9
  8
0
 10
551.0167264836527
 20
1256.083282732426
 30
0.0
  0
VERTEX
  5
AA
  8
0
 10
551.1681941456494
 20
1255.943585234784
 30
0.0
 42
-0.4142135623730974
  0
VERTEX
  5
AB
  8
0
 10
551.1681941456499
 20
1252.393909193241
 30
0.0
  0
VERTEX
  5
AC
  8
0
 10
551.0175830085101
 20
1252.254940016139
 30
0.0
  0
VERTEX
  5
AD
  8
0
 10
550.8588325232457
 20
1252.1305170888
 30
0.0
  0
VERTEX
  5
AE
  8
0
 10
550.692840820447
 20
1252.020641058532
 30
0.0
  0
VERTEX
  5
AF
  8
0
 10
550.5205060307044
 20
1251.925312572642
 30
0.0
  0
VERTEX
  5
B0
  8
0
 10
550.3427262846078
 20
1251.844532278437
 30
0.0
  0
VERTEX
  5
B1
  8
0
 10
550.1603997127479
 20
1251.778300823225
 30
0.0
  0
VERTEX
  5
B2
  8
0
 10
549.9744244457149
 20
1251.726618854313
 30
0.0
  0
VERTEX
  5
B3
  8
0
 10
549.7856986140989
 20
1251.689487019009
 30
0.0
  0
VERTEX
  5
B4
  8
0
 10
549.5951203484904
 20
1251.666905964621
 30
0.0
  0
VERTEX
  5
B5
  8
0
 10
549.4035877794795
 20
1251.658876338455
 30
0.0
  0
VERTEX
  5
B6
  8
0
 10
549.2119990376566
 20
1251.665398787819
 30
0.0
  0
VERTEX
  5
B7
  8
0
 10
549.0212522536121
 20
1251.686473960021
 30
0.0
  0
VERTEX
  5
B8
  8
0
 10
548.8322455579362
 20
1251.722102502368
 30
0.0
  0
VERTEX
  5
B9
  8
0
 10
548.6458770812192
 20
1251.772285062168
 30
0.0
  0
VERTEX
  5
BA
  8
0
 10
548.4630449540514
 20
1251.837022286728
 30
0.0
  0
VERTEX
  5
BB
  8
0
 10
548.2846473070231
 20
1251.916314823356
 30
0.0
  0
VERTEX
  5
BC
  8
0
 10
546.6863638178515
 20
1250.041886876676
 30
0.0
  0
VERTEX
  5
BD
  8
0
 10
542.2570856455693
 20
1243.363249999903
 30
0.0
  0
VERTEX
  5
BE
  8
0
 10
540.4198500002769
 20
1240.008549999916
 30
0.0
  0
VERTEX
  5
BF
  8
0
 10
539.2184024738814
 20
1237.572211004727
 30
0.0
  0
VERTEX
  5
C0
  8
0
 10
537.8122500002871
 20
1234.421949999939
 30
0.0
  0
VERTEX
  5
C1
  8
0
 10
536.2035835298939
 20
1230.314657219156
 30
0.0
  0
VERTEX
  5
C2
  8
0
 10
534.4553000636007
 20
1225.001049999977
 30
0.0
  0
VERTEX
  5
C3
  8
0
 10
533.4350500003045
 20
1221.310749999992
 30
0.0
  0
VERTEX
  5
C4
  8
0
 10
532.1921023779096
 20
1215.915947593614
 30
0.0
  0
VERTEX
  5
C5
  8
0
 10
530.9622850858873
 20
1208.969361959707
 30
0.0
 42
-0.4142135623730888
  0
VERTEX
  5
C6
  8
0
 10
528.4522331877299
 20
1206.459372848997
 30
0.0
  0
VERTEX
  5
C7
  8
0
 10
528.2225867790779
 20
1206.469771759689
 30
0.0
  0
VERTEX
  5
C8
  8
0
 10
527.998531729336
 20
1206.500397798229
 30
0.0
  0
VERTEX
  5
C9
  8
0
 10
527.7810328856528
 20
1206.550394924319
 30
0.0
  0
VERTEX
  5
CA
  8
0
 10
527.5710550951771
 20
1206.618907097659
 30
0.0
  0
VERTEX
  5
CB
  8
0
 10
527.3695632050573
 20
1206.705078277947
 30
0.0
  0
VERTEX
  5
CC
  8
0
 10
527.1775220624419
 20
1206.808052424886
 30
0.0
  0
VERTEX
  5
CD
  8
0
 10
526.9958965144798
 20
1206.926973498173
 30
0.0
  0
VERTEX
  5
CE
  8
0
 10
526.8256514083195
 20
1207.06098545751
 30
0.0
  0
VERTEX
  5
CF
  8
0
 10
527.2539531242357
 20
1209.875412127724
 30
0.0
  0
VERTEX
  5
D0
  8
0
 10
525.2765925872021
 20
1210.175487629194
 30
0.0
  0
VERTEX
  5
D1
  8
0
 10
523.9988639531804
 20
1201.754642906677
 30
0.0
  0
VERTEX
  5
D2
  8
0
 10
525.9762244902136
 20
1201.454567405206
 30
0.0
  0
VERTEX
  5
D3
  8
0
 10
526.3345940566381
 20
1203.827877571777
 30
0.0
  0
VERTEX
  5
D4
  8
0
 10
526.4722080419795
 20
1203.897437335111
 30
0.0
  0
VERTEX
  5
D5
  8
0
 10
526.6137160671738
 20
1203.958112054718
 30
0.0
  0
VERTEX
  5
D6
  8
0
 10
526.7586861848118
 20
1204.009781651061
 30
0.0
  0
VERTEX
  5
D7
  8
0
 10
526.9066864474842
 20
1204.052326044605
 30
0.0
  0
VERTEX
  5
D8
  8
0
 10
527.0572849077814
 20
1204.085625155812
 30
0.0
  0
VERTEX
  5
D9
  8
0
 10
527.2100496182941
 20
1204.109558905148
 30
0.0
  0
VERTEX
  5
DA
  8
0
 10
527.3645486316129
 20
1204.124007213076
 30
0.0
  0
VERTEX
  5
DB
  8
0
 10
527.5203500003283
 20
1204.12885000006
 30
0.0
 42
-0.4142135623730928
  0
VERTEX
  5
DC
  8
0
 10
530.0303500003181
 20
1201.618850000071
 30
0.0
  0
VERTEX
  5
DD
  8
0
 10
530.0238988411045
 20
1201.435822447883
 30
0.0
  0
VERTEX
  5
DE
  8
0
 10
530.0183384173166
 20
1201.394431462119
 30
0.0
  0
VERTEX
  5
DF
  8
0
 10
530.0134467865005
 20
1201.412377221286
 30
0.0
  0
VERTEX
  5
E0
  8
0
 10
529.9588322289802
 20
1200.813449770853
 30
0.0
  0
VERTEX
  5
E1
  8
0
 10
529.5257507321926
 20
1196.06408607592
 30
0.0
  0
VERTEX
  5
E2
  8
0
 10
527.1657856094718
 20
1196.279284846402
 30
0.0
  0
VERTEX
  5
E3
  8
0
 10
527.1657856094718
 20
1196.279284846402
 30
0.0
  0
VERTEX
  5
E4
  8
0
 10
527.085192394636
 20
1195.022646025052
 30
0.0
  0
VERTEX
  5
E5
  8
0
 10
529.4514021672254
 20
1194.88787136665
 30
0.0
  0
VERTEX
  5
E6
  8
0
 10
529.0789792798013
 20
1189.080917775698
 30
0.0
  0
VERTEX
  5
E7
  8
0
 10
529.0546100953311
 20
1188.835697935915
 30
0.0
  0
VERTEX
  5
E8
  8
0
 10
529.0072430764594
 20
1188.597968829646
 30
0.0
  0
VERTEX
  5
E9
  8
0
 10
528.9380263235428
 20
1188.368879834964
 30
0.0
  0
VERTEX
  5
EA
  8
0
 10
528.8481079369379
 20
1188.149580329943
 30
0.0
  0
VERTEX
  5
EB
  8
0
 10
528.738636017001
 20
1187.941219692658
 30
0.0
  0
VERTEX
  5
EC
  8
0
 10
528.6107586640885
 20
1187.744947301183
 30
0.0
  0
VERTEX
  5
ED
  8
0
 10
528.465623978557
 20
1187.561912533592
 30
0.0
  0
VERTEX
  5
EE
  8
0
 10
528.3043800607629
 20
1187.39326476796
 30
0.0
  0
VERTEX
  5
EF
  8
0
 10
528.1281750110629
 20
1187.240153382359
 30
0.0
  0
VERTEX
  5
F0
  8
0
 10
527.9381569298132
 20
1187.103727754864
 30
0.0
  0
VERTEX
  5
F1
  8
0
 10
527.7354739173704
 20
1186.98513726355
 30
0.0
  0
VERTEX
  5
F2
  8
0
 10
527.521274074091
 20
1186.885531286491
 30
0.0
  0
VERTEX
  5
F3
  8
0
 10
527.2967055003314
 20
1186.80605920176
 30
0.0
  0
VERTEX
  5
F4
  8
0
 10
527.0629162964484
 20
1186.747870387432
 30
0.0
  0
VERTEX
  5
F5
  8
0
 10
526.8210545627982
 20
1186.712114221581
 30
0.0
  0
VERTEX
  5
F6
  8
0
 10
526.572268399737
 20
1186.699940082281
 30
0.0
  0
VERTEX
  5
F7
  8
0
 10
526.2809989010719
 20
1186.715809682369
 30
0.0
  0
VERTEX
  5
F8
  8
0
 10
525.9091685143271
 20
1186.765559238839
 30
0.0
  0
VERTEX
  5
F9
  8
0
 10
524.5740383624761
 20
1186.979542758142
 30
0.0
  0
VERTEX
  5
FA
  8
0
 10
524.7056208162466
 20
1189.421247075657
 30
0.0
  0
VERTEX
  5
FB
  8
0
 10
522.6606325028923
 20
1189.531087197064
 30
0.0
  0
VERTEX
  5
FC
  8
0
 10
522.2344048173908
 20
1181.593842075488
 30
0.0
  0
VERTEX
  5
FD
  8
0
 10
524.2793931307451
 20
1181.48400195408
 30
0.0
  0
VERTEX
  5
FE
  8
0
 10
524.4103197426172
 20
1183.950582964421
 30
0.0
  0
VERTEX
  5
FF
  8
0
 10
525.6794228685519
 20
1184.032553934932
 30
0.0
  0
VERTEX
  5
100
  8
0
 10
526.0106108685363
 20
1184.058914249634
 30
0.0
  0
VERTEX
  5
101
  8
0
 10
526.2564794332269
 20
1184.068818653977
 30
0.0
 42
-0.4142135623730928
  0
VERTEX
  5
102
  8
0
 10
528.7625736197747
 20
1181.612437356499
 30
0.0
  0
VERTEX
  5
103
  8
0
 10
528.7207853923233
 20
1180.377546524955
 30
0.0
  0
VERTEX
  5
104
  8
0
 10
528.6883561633235
 20
1179.364150000159
 30
0.0
  0
VERTEX
  5
105
  8
0
 10
527.5284372323287
 20
1176.315693411372
 30
0.0
  0
VERTEX
  5
106
  8
0
 10
525.4106500003368
 20
1174.825950000177
 30
0.0
  0
VERTEX
  5
107
  8
0
 10
524.7380500003394
 20
1174.825950000177
 30
0.0
 42
0.4142135623730923
  0
VERTEX
  5
108
  8
0
 10
521.7380500003512
 20
1171.82595000019
 30
0.0
  0
VERTEX
  5
109
  8
0
 10
521.7380500003512
 20
1164.592150000218
 30
0.0
 42
0.414213562373094
  0
VERTEX
  5
10A
  8
0
 10
525.7380500003351
 20
1160.592150000234
 30
0.0
  0
VERTEX
  5
10B
  8
0
 10
526.7380500003314
 20
1160.592150000234
 30
0.0
  0
VERTEX
  5
10C
  8
0
 10
527.1000000003303
 20
1160.592150000234
 30
0.0
 42
0.414213562373097
  0
VERTEX
  5
10D
  8
0
 10
534.6000000002998
 20
1168.092150000204
 30
0.0
  0
VERTEX
  5
10E
  8
0
 10
534.6000000002998
 20
1169.754304826098
 30
0.0
  0
VERTEX
  5
10F
  8
0
 10
537.8122500002987
 20
1203.184450000065
 30
0.0
 42
-0.6286310376684168
  0
VERTEX
  5
110
  8
0
 10
681.3877499997013
 20
1203.184450000065
 30
0.0
  0
VERTEX
  5
111
  8
0
 10
682.9938749997007
 20
1186.469377413081
 30
0.0
  0
VERTEX
  5
112
  8
0
 10
684.5999999997
 20
1169.754304826097
 30
0.0
  0
VERTEX
  5
113
  8
0
 10
684.5999999997
 20
1168.092150000204
 30
0.0
 42
0.4142135623730951
  0
VERTEX
  5
114
  8
0
 10
692.09999999967
 20
1160.592150000234
 30
0.0
  0
VERTEX
  5
115
  8
0
 10
692.4619499996686
 20
1160.592150000234
 30
0.0
  0
VERTEX
  5
116
  8
0
 10
693.4619499996647
 20
1160.592150000234
 30
0.0
 42
0.414213562373094
  0
VERTEX
  5
117
  8
0
 10
697.4619499996486
 20
1164.592150000218
 30
0.0
  0
VERTEX
  5
118
  8
0
 10
697.4619499996487
 20
1171.82595000019
 30
0.0
 42
0.414213562373097
  0
VERTEX
  5
119
  8
0
 10
694.4619499996603
 20
1174.825950000177
 30
0.0
  0
VERTEX
  5
11A
  8
0
 10
693.7893499996634
 20
1174.825950000177
 30
0.0
  0
VERTEX
  5
11B
  8
0
 10
691.6715627676716
 20
1176.315693411372
 30
0.0
  0
VERTEX
  5
11C
  8
0
 10
690.5116499996766
 20
1179.364150000159
 30
0.0
  0
VERTEX
  5
11D
  8
0
 10
690.4792146076768
 20
1180.377546524956
 30
0.0
  0
VERTEX
  5
11E
  8
0
 10
690.4358637634767
 20
1181.667250000149
 30
0.0
  0
VERTEX
  5
11F
  8
0
 10
690.4374263802251
 20
1181.612437356499
 30
0.0
 42
-0.4142135623730928
  0
VERTEX
  5
120
  8
0
 10
692.9435205667735
 20
1184.068818653977
 30
0.0
  0
VERTEX
  5
121
  8
0
 10
693.1893891314639
 20
1184.058914249634
 30
0.0
  0
VERTEX
  5
122
  8
0
 10
693.5205771314482
 20
1184.032553934932
 30
0.0
  0
VERTEX
  5
123
  8
0
 10
694.0247767717476
 20
1183.994767057364
 30
0.0
  0
VERTEX
  5
124
  8
0
 10
694.7896802573833
 20
1183.950582964421
 30
0.0
  0
VERTEX
  5
125
  8
0
 10
694.9298157906909
 20
1181.315234703544
 30
0.0
  0
VERTEX
  5
126
  8
0
 10
696.9748041040455
 20
1181.425074824954
 30
0.0
  0
VERTEX
  5
127
  8
0
 10
696.5333459446065
 20
1189.642825885011
 30
0.0
  0
VERTEX
  5
128
  8
0
 10
694.4883576312524
 20
1189.532985763602
 30
0.0
  0
VERTEX
  5
129
  8
0
 10
694.6259616375237
 20
1186.979542758143
 30
0.0
  0
VERTEX
  5
12A
  8
0
 10
693.290831485673
 20
1186.765559238839
 30
0.0
  0
VERTEX
  5
12B
  8
0
 10
692.9190010989282
 20
1186.71580968237
 30
0.0
  0
VERTEX
  5
12C
  8
0
 10
692.7687616559938
 20
1186.703840583672
 30
0.0
  0
VERTEX
  5
12D
  8
0
 10
692.627731600263
 20
1186.699940082281
 30
0.0
  0
VERTEX
  5
12E
  8
0
 10
692.3789454372019
 20
1186.712114221581
 30
0.0
  0
VERTEX
  5
12F
  8
0
 10
692.1370837035515
 20
1186.747870387433
 30
0.0
  0
VERTEX
  5
130
  8
0
 10
691.9032944996684
 20
1186.80605920176
 30
0.0
  0
VERTEX
  5
131
  8
0
 10
691.6787259259088
 20
1186.885531286491
 30
0.0
  0
VERTEX
  5
132
  8
0
 10
691.4645260826294
 20
1186.985137263551
 30
0.0
  0
VERTEX
  5
133
  8
0
 10
691.2618430701866
 20
1187.103727754864
 30
0.0
  0
VERTEX
  5
134
  8
0
 10
691.0718249889369
 20
1187.240153382359
 30
0.0
  0
VERTEX
  5
135
  8
0
 10
690.8956199392369
 20
1187.39326476796
 30
0.0
  0
VERTEX
  5
136
  8
0
 10
690.7343760214428
 20
1187.561912533592
 30
0.0
  0
VERTEX
  5
137
  8
0
 10
690.5892413359113
 20
1187.744947301183
 30
0.0
  0
VERTEX
  5
138
  8
0
 10
690.4613639829988
 20
1187.941219692658
 30
0.0
  0
VERTEX
  5
139
  8
0
 10
690.3518920630619
 20
1188.149580329943
 30
0.0
  0
VERTEX
  5
13A
  8
0
 10
690.261973676457
 20
1188.368879834964
 30
0.0
  0
VERTEX
  5
13B
  8
0
 10
690.1927569235404
 20
1188.597968829646
 30
0.0
  0
VERTEX
  5
13C
  8
0
 10
690.145389904669
 20
1188.835697935915
 30
0.0
  0
VERTEX
  5
13D
  8
0
 10
690.1210207201987
 20
1189.080917775698
 30
0.0
  0
VERTEX
  5
13E
  8
0
 10
689.7485978327741
 20
1194.887871366651
 30
0.0
  0
VERTEX
  5
13F
  8
0
 10
692.114807605364
 20
1195.022646025052
 30
0.0
  0
VERTEX
  5
140
  8
0
 10
692.0342143905282
 20
1196.279284846402
 30
0.0
  0
VERTEX
  5
141
  8
0
 10
692.0342143905282
 20
1196.279284846402
 30
0.0
  0
VERTEX
  5
142
  8
0
 10
689.6742492678077
 20
1196.06408607592
 30
0.0
  0
VERTEX
  5
143
  8
0
 10
689.2411677710195
 20
1200.813449770852
 30
0.0
  0
VERTEX
  5
144
  8
0
 10
689.1865532134995
 20
1201.412377221286
 30
0.0
  0
VERTEX
  5
145
  8
0
 10
689.1816615826832
 20
1201.394431462119
 30
0.0
  0
VERTEX
  5
146
  8
0
 10
689.1761011588953
 20
1201.435822447883
 30
0.0
  0
VERTEX
  5
147
  8
0
 10
689.1696499996817
 20
1201.61885000007
 30
0.0
 42
-0.4142135623730928
  0
VERTEX
  5
148
  8
0
 10
691.6796499996715
 20
1204.12885000006
 30
0.0
  0
VERTEX
  5
149
  8
0
 10
691.8354513683869
 20
1204.124007213076
 30
0.0
  0
VERTEX
  5
14A
  8
0
 10
691.9899503817057
 20
1204.109558905148
 30
0.0
  0
VERTEX
  5
14B
  8
0
 10
692.1427150922186
 20
1204.085625155812
 30
0.0
  0
VERTEX
  5
14C
  8
0
 10
692.2933135525158
 20
1204.052326044605
 30
0.0
  0
VERTEX
  5
14D
  8
0
 10
692.4413138151881
 20
1204.009781651061
 30
0.0
  0
VERTEX
  5
14E
  8
0
 10
692.5862839328262
 20
1203.958112054718
 30
0.0
  0
VERTEX
  5
14F
  8
0
 10
692.7277919580206
 20
1203.897437335111
 30
0.0
  0
VERTEX
  5
150
  8
0
 10
692.8654059433619
 20
1203.827877571777
 30
0.0
  0
VERTEX
  5
151
  8
0
 10
693.2237755097859
 20
1201.454567405206
 30
0.0
  0
VERTEX
  5
152
  8
0
 10
695.2011360468197
 20
1201.754642906676
 30
0.0
  0
VERTEX
  5
153
  8
0
 10
693.9110631283418
 20
1210.256603539092
 30
0.0
  0
VERTEX
  5
154
  8
0
 10
691.9337025913089
 20
1209.956528037622
 30
0.0
  0
VERTEX
  5
155
  8
0
 10
692.3743485916806
 20
1207.06098545751
 30
0.0
  0
VERTEX
  5
156
  8
0
 10
692.2041034855201
 20
1206.926973498173
 30
0.0
  0
VERTEX
  5
157
  8
0
 10
692.0224779375579
 20
1206.808052424886
 30
0.0
  0
VERTEX
  5
158
  8
0
 10
691.8304367949427
 20
1206.705078277948
 30
0.0
  0
VERTEX
  5
159
  8
0
 10
691.6289449048228
 20
1206.618907097659
 30
0.0
  0
VERTEX
  5
15A
  8
0
 10
691.418967114347
 20
1206.55039492432
 30
0.0
  0
VERTEX
  5
15B
  8
0
 10
691.2014682706638
 20
1206.500397798229
 30
0.0
  0
VERTEX
  5
15C
  8
0
 10
690.9774132209219
 20
1206.469771759689
 30
0.0
  0
VERTEX
  5
15D
  8
0
 10
690.74776681227
 20
1206.459372848997
 30
0.0
 42
-0.4142135623730888
  0
VERTEX
  5
15E
  8
0
 10
688.2377668122804
 20
1208.969372848988
 30
0.0
  0
VERTEX
  5
15F
  8
0
 10
687.00789762209
 20
1215.915947593614
 30
0.0
  0
VERTEX
  5
160
  8
0
 10
685.7649499996952
 20
1221.310749999992
 30
0.0
  0
VERTEX
  5
161
  8
0
 10
684.7447582195996
 20
1225.001049999976
 30
0.0
  0
VERTEX
  5
162
  8
0
 10
682.9964164701064
 20
1230.314657219156
 30
0.0
  0
VERTEX
  5
163
  8
0
 10
681.3877616204129
 20
1234.421949999939
 30
0.0
  0
VERTEX
  5
164
  8
0
 10
679.9815975261185
 20
1237.572211004726
 30
0.0
  0
VERTEX
  5
165
  8
0
 10
678.7801499997236
 20
1240.008549999917
 30
0.0
  0
VERTEX
  5
166
  8
0
 10
676.9429726376803
 20
1243.363249999903
 30
0.0
  0
VERTEX
  5
167
  8
0
 10
672.5136361821478
 20
1250.041886876676
 30
0.0
  0
VERTEX
  5
168
  8
0
 10
670.9136114479971
 20
1251.918358057677
 30
0.0
  0
VERTEX
  5
169
  8
0
 10
670.7355203043485
 20
1251.838705859922
 30
0.0
  0
VERTEX
  5
16A
  8
0
 10
670.5529564207717
 20
1251.77365386952
 30
0.0
  0
VERTEX
  5
16B
  8
0
 10
670.36682047851
 20
1251.723198446144
 30
0.0
  0
VERTEX
  5
16C
  8
0
 10
670.1780131588064
 20
1251.687335949468
 30
0.0
  0
VERTEX
  5
16D
  8
0
 10
669.9874351429039
 20
1251.666062739167
 30
0.0
  0
VERTEX
  5
16E
  8
0
 10
669.7959871120455
 20
1251.659375174913
 30
0.0
  0
VERTEX
  5
16F
  8
0
 10
669.6045697474742
 20
1251.667269616381
 30
0.0
  0
VERTEX
  5
170
  8
0
 10
669.4140837304329
 20
1251.689742423245
 30
0.0
  0
VERTEX
  5
171
  8
0
 10
669.2254297421648
 20
1251.726789955178
 30
0.0
  0
VERTEX
  5
172
  8
0
 10
669.039508463913
 20
1251.778408571854
 30
0.0
  0
VERTEX
  5
173
  8
0
 10
668.8572205769203
 20
1251.844594632946
 30
0.0
  0
VERTEX
  5
174
  8
0
 10
668.6794667624299
 20
1251.925344498129
 30
0.0
  0
VERTEX
  5
175
  8
0
 10
668.5071477016847
 20
1252.020654527076
 30
0.0
  0
VERTEX
  5
176
  8
0
 10
668.3411640759276
 20
1252.130521079462
 30
0.0
  0
VERTEX
  5
177
  8
0
 10
668.1824165664019
 20
1252.254940514959
 30
0.0
  0
VERTEX
  5
178
  8
0
 10
668.0318058543505
 20
1252.393909193241
 30
0.0
 42
-0.4142135623730974
  0
VERTEX
  5
179
  8
0
 10
668.0318058543505
 20
1255.943585234783
 30
0.0
  0
VERTEX
  5
17A
  8
0
 10
668.1832844925896
 20
1256.083291886659
 30
0.0
  0
VERTEX
  5
17B
  8
0
 10
668.3429865949372
 20
1256.208286417781
 30
0.0
  0
VERTEX
  5
17C
  8
0
 10
668.5099965610605
 20
1256.318565809609
 30
0.0
  0
VERTEX
  5
17D
  8
0
 10
668.6833987906268
 20
1256.414127043602
 30
0.0
  0
VERTEX
  5
17E
  8
0
 10
668.8622776833031
 20
1256.49496710122
 30
0.0
  0
VERTEX
  5
17F
  8
0
 10
669.0457176387567
 20
1256.561082963925
 30
0.0
  0
VERTEX
  5
180
  8
0
 10
669.2328030566549
 20
1256.612471613176
 30
0.0
  0
VERTEX
  5
181
  8
0
 10
669.4226183366645
 20
1256.649130030434
 30
0.0
  0
VERTEX
  5
182
  8
0
 10
669.6142478784529
 20
1256.671055197157
 30
0.0
  0
VERTEX
  5
183
  8
0
 10
669.8067760816873
 20
1256.678244094807
 30
0.0
  0
VERTEX
  5
184
  8
0
 10
669.9992873460349
 20
1256.670693704844
 30
0.0
  0
VERTEX
  5
185
  8
0
 10
670.1908660711624
 20
1256.648401008727
 30
0.0
  0
VERTEX
  5
186
  8
0
 10
670.3805966567375
 20
1256.611362987917
 30
0.0
  0
VERTEX
  5
187
  8
0
 10
670.5675635024271
 20
1256.559576623874
 30
0.0
  0
VERTEX
  5
188
  8
0
 10
670.7508510078985
 20
1256.493038898058
 30
0.0
  0
VERTEX
  5
189
  8
0
 10
670.9295435728188
 20
1256.411746791929
 30
0.0
  0
VERTEX
  5
18A
  8
0
 10
671.0529499997542
 20
1256.600349999851
 30
0.0
  0
VERTEX
  5
18B
  8
0
 10
671.3709621339029
 20
1257.252549999848
 30
0.0
  0
VERTEX
  5
18C
  8
0
 10
671.4365042269526
 20
1257.955432700644
 30
0.0
  0
VERTEX
  5
18D
  8
0
 10
671.1421499997542
 20
1258.433349999843
 30
0.0
  0
VERTEX
  5
18E
  8
0
 10
666.3201729394732
 20
1262.867149999826
 30
0.0
  0
VERTEX
  5
18F
  8
0
 10
665.6618656989762
 20
1263.124592303824
 30
0.0
  0
VERTEX
  5
190
  8
0
 10
665.1206499997782
 20
1262.972949999825
 30
0.0
  0
VERTEX
  5
191
  8
0
 10
664.5060594552804
 20
1262.589349999827
 30
0.0
  0
VERTEX
  5
192
  8
0
 10
664.3448423031505
 20
1262.448303098853
 30
0.0
  0
VERTEX
  5
193
  8
0
 10
664.4366575441775
 20
1262.27819702114
 30
0.0
  0
VERTEX
  5
194
  8
0
 10
664.5145098480923
 20
1262.102607220366
 30
0.0
  0
VERTEX
  5
195
  8
0
 10
664.5783300151944
 20
1261.922409945903
 30
0.0
  0
VERTEX
  5
196
  8
0
 10
664.6280488457835
 20
1261.738481447125
 30
0.0
  0
VERTEX
  5
197
  8
0
 10
664.6635971401593
 20
1261.551697973404
 30
0.0
  0
VERTEX
  5
198
  8
0
 10
664.6849056986216
 20
1261.362935774114
 30
0.0
  0
VERTEX
  5
199
  8
0
 10
664.6919053214698
 20
1261.173071098625
 30
0.0
  0
VERTEX
  5
19A
  8
0
 10
664.6845268090038
 20
1260.982980196311
 30
0.0
  0
VERTEX
  5
19B
  8
0
 10
664.6627009615233
 20
1260.793539316545
 30
0.0
  0
VERTEX
  5
19C
  8
0
 10
664.6263585793279
 20
1260.6056247087
 30
0.0
  0
VERTEX
  5
19D
  8
0
 10
664.575430462717
 20
1260.420112622147
 30
0.0
  0
VERTEX
  5
19E
  8
0
 10
664.5098474119908
 20
1260.237879306261
 30
0.0
  0
VERTEX
  5
19F
  8
0
 10
664.4295402274487
 20
1260.059801010412
 30
0.0
  0
VERTEX
  5
1A0
  8
0
 10
664.3344397093904
 20
1259.886753983975
 30
0.0
  0
VERTEX
  5
1A1
  8
0
 10
664.2244766581155
 20
1259.719614476321
 30
0.0
  0
VERTEX
  5
1A2
  8
0
 10
664.0995818739237
 20
1259.559258736824
 30
0.0
 42
-0.4142135623730974
  0
VERTEX
  5
1A3
  8
0
 10
660.5623707519561
 20
1259.262042521701
 30
0.0
  0
VERTEX
  5
1A4
  8
0
 10
660.4143094401321
 20
1259.39748335129
 30
0.0
  0
VERTEX
  5
1A5
  8
0
 10
660.2794913477501
 20
1259.541880667919
 30
0.0
  0
VERTEX
  5
1A6
  8
0
 10
660.1579925511974
 20
1259.694391995417
 30
0.0
  0
VERTEX
  5
1A7
  8
0
 10
660.0498891268616
 20
1259.854174857619
 30
0.0
  0
VERTEX
  5
1A8
  8
0
 10
659.9552571511304
 20
1260.020386778353
 30
0.0
  0
VERTEX
  5
1A9
  8
0
 10
659.8741727003911
 20
1260.192185281455
 30
0.0
  0
VERTEX
  5
1AA
  8
0
 10
659.8067118510315
 20
1260.368727890754
 30
0.0
  0
VERTEX
  5
1AB
  8
0
 10
659.7529506794392
 20
1260.549172130082
 30
0.0
  0
VERTEX
  5
1AC
  8
0
 10
659.7129652620017
 20
1260.732675523271
 30
0.0
  0
VERTEX
  5
1AD
  8
0
 10
659.6868316751065
 20
1260.918395594153
 30
0.0
  0
VERTEX
  5
1AE
  8
0
 10
659.6746259951412
 20
1261.10548986656
 30
0.0
  0
VERTEX
  5
1AF
  8
0
 10
659.6764242984934
 20
1261.293115864323
 30
0.0
  0
VERTEX
  5
1B0
  8
0
 10
659.6923026615507
 20
1261.480431111274
 30
0.0
  0
VERTEX
  5
1B1
  8
0
 10
659.7223371607006
 20
1261.666593131244
 30
0.0
  0
VERTEX
  5
1B2
  8
0
 10
659.7666038723306
 20
1261.850759448067
 30
0.0
  0
VERTEX
  5
1B3
  8
0
 10
659.8251788728285
 20
1262.032087585572
 30
0.0
  0
VERTEX
  5
1B4
  8
0
 10
656.3383530014127
 20
1264.397233961419
 30
0.0
  0
VERTEX
  5
1B5
  8
0
 10
650.6532499998356
 20
1267.282149999808
 30
0.0
  0
VERTEX
  5
1B6
  8
0
 10
647.1152656545996
 20
1268.729949999802
 30
0.0
  0
VERTEX
  5
1B7
  8
0
 10
643.5390042526641
 20
1269.960617916597
 30
0.0
  0
VERTEX
  5
1B8
  8
0
 10
640.6929750220254
 20
1270.787249999793
 30
0.0
  0
VERTEX
  5
1B9
  8
0
 10
637.3612948829029
 20
1271.574090728356
 30
0.0
  0
VERTEX
  5
1BA
  8
0
 10
637.2693270696103
 20
1271.392642280549
 30
0.0
  0
VERTEX
  5
1BB
  8
0
 10
637.1637516167939
 20
1271.220606146649
 30
0.0
  0
VERTEX
  5
1BC
  8
0
 10
637.0453752526474
 20
1271.058579880671
 30
0.0
  0
VERTEX
  5
1BD
  8
0
 10
636.9150047053647
 20
1270.907161036631
 30
0.0
  0
VERTEX
  5
1BE
  8
0
 10
636.7734467031395
 20
1270.766947168543
 30
0.0
  0
VERTEX
  5
1BF
  8
0
 10
636.6215079741655
 20
1270.638535830423
 30
0.0
  0
VERTEX
  5
1C0
  8
0
 10
636.4599952466365
 20
1270.522524576286
 30
0.0
  0
VERTEX
  5
1C1
  8
0
 10
636.2897152487462
 20
1270.419510960147
 30
0.0
  0
VERTEX
  5
1C2
  8
0
 10
636.1114747086885
 20
1270.330092536021
 30
0.0
  0
VERTEX
  5
1C3
  8
0
 10
635.926080354657
 20
1270.254866857924
 30
0.0
  0
VERTEX
  5
1C4
  8
0
 10
635.7343389148456
 20
1270.19443147987
 30
0.0
  0
VERTEX
  5
1C5
  8
0
 10
635.537057117448
 20
1270.149383955875
 30
0.0
  0
VERTEX
  5
1C6
  8
0
 10
635.3350416906578
 20
1270.120321839954
 30
0.0
  0
VERTEX
  5
1C7
  8
0
 10
635.129099362669
 20
1270.107842686122
 30
0.0
  0
VERTEX
  5
1C8
  8
0
 10
634.9200368616753
 20
1270.112544048394
 30
0.0
  0
VERTEX
  5
1C9
  8
0
 10
634.7086609158704
 20
1270.135023480785
 30
0.0
 42
-0.4142135623730928
  0
VERTEX
  5
1CA
  8
0
 10
632.5951899378261
 20
1272.986942207688
 30
0.0
  0
VERTEX
  5
1CB
  8
0
 10
632.6264592894037
 20
1273.15713550309
 30
0.0
  0
VERTEX
  5
1CC
  8
0
 10
632.6687185557005
 20
1273.322741824968
 30
0.0
  0
VERTEX
  5
1CD
  8
0
 10
632.7215479547873
 20
1273.483406275153
 30
0.0
  0
VERTEX
  5
1CE
  8
0
 10
632.7845277047353
 20
1273.638773955477
 30
0.0
  0
VERTEX
  5
1CF
  8
0
 10
632.8572380236152
 20
1273.788489967769
 30
0.0
  0
VERTEX
  5
1D0
  8
0
 10
632.9392591294978
 20
1273.932199413861
 30
0.0
  0
VERTEX
  5
1D1
  8
0
 10
633.0301712404544
 20
1274.069547395583
 30
0.0
  0
VERTEX
  5
1D2
  8
0
 10
633.1295545745554
 20
1274.200179014765
 30
0.0
  0
VERTEX
  5
1D3
  8
0
 10
633.2369893498719
 20
1274.323739373238
 30
0.0
  0
VERTEX
  5
1D4
  8
0
 10
633.3520557844749
 20
1274.439873572834
 30
0.0
  0
VERTEX
  5
1D5
  8
0
 10
633.4743340964353
 20
1274.548226715382
 30
0.0
  0
VERTEX
  5
1D6
  8
0
 10
633.6034045038239
 20
1274.648443902713
 30
0.0
  0
VERTEX
  5
1D7
  8
0
 10
633.7388472247115
 20
1274.740170236657
 30
0.0
  0
VERTEX
  5
1D8
  8
0
 10
633.8802424771692
 20
1274.823050819047
 30
0.0
  0
VERTEX
  5
1D9
  8
0
 10
634.0271704792679
 20
1274.896730751711
 30
0.0
  0
VERTEX
  5
1DA
  8
0
 10
634.1792114490781
 20
1274.960855136481
 30
0.0
  0
VERTEX
  5
1DB
  8
0
 10
634.2293667103015
 20
1275.152495311776
 30
0.0
  0
VERTEX
  5
1DC
  8
0
 10
634.2208499999012
 20
1275.400749999776
 30
0.0
  0
VERTEX
  5
1DD
  8
0
 10
634.1062895842517
 20
1276.117349999772
 30
0.0
  0
VERTEX
  5
1DE
  8
0
 10
633.7558275359032
 20
1276.730082466969
 30
0.0
  0
VERTEX
  5
1DF
  8
0
 10
633.2401499999054
 20
1276.95184999977
 30
0.0
  0
VERTEX
  5
1E0
  8
0
 10
626.7457007926313
 20
1277.807849999766
 30
0.0
  0
VERTEX
  5
1E1
  8
0
 10
626.0590121375342
 20
1277.640185999766
 30
0.0
  0
VERTEX
  5
1E2
  8
0
 10
625.7033499999355
 20
1277.204849999767
 30
0.0
  0
VERTEX
  5
1E3
  8
0
 10
625.4211835845363
 20
1276.537749999771
 30
0.0
  0
VERTEX
  5
1E4
  8
0
 10
625.3456034015372
 20
1276.232581359772
 30
0.0
  0
VERTEX
  5
1E5
  8
0
 10
625.3511431164479
 20
1276.107809534499
 30
0.0
  0
VERTEX
  5
1E6
  8
0
 10
625.4780351890921
 20
1276.006258582204
 30
0.0
  0
VERTEX
  5
1E7
  8
0
 10
625.5976833304419
 20
1275.897090852098
 30
0.0
  0
VERTEX
  5
1E8
  8
0
 10
625.7097824495158
 20
1275.780738942774
 30
0.0
  0
VERTEX
  5
1E9
  8
0
 10
625.8140274553324
 20
1275.657635452826
 30
0.0
  0
VERTEX
  5
1EA
  8
0
 10
625.9101132569099
 20
1275.528212980846
 30
0.0
  0
VERTEX
  5
1EB
  8
0
 10
625.9977347632666
 20
1275.392904125428
 30
0.0
  0
VERTEX
  5
1EC
  8
0
 10
626.0765868834213
 20
1275.252141485166
 30
0.0
  0
VERTEX
  5
1ED
  8
0
 10
626.1463645263922
 20
1275.106357658653
 30
0.0
  0
VERTEX
  5
1EE
  8
0
 10
626.2067626011976
 20
1274.955985244481
 30
0.0
  0
VERTEX
  5
1EF
  8
0
 10
626.2574760168561
 20
1274.801456841245
 30
0.0
  0
VERTEX
  5
1F0
  8
0
 10
626.2981996823858
 20
1274.643205047538
 30
0.0
  0
VERTEX
  5
1F1
  8
0
 10
626.3286285068056
 20
1274.481662461953
 30
0.0
  0
VERTEX
  5
1F2
  8
0
 10
626.3484573991336
 20
1274.317261683083
 30
0.0
  0
VERTEX
  5
1F3
  8
0
 10
626.357381268388
 20
1274.150435309522
 30
0.0
  0
VERTEX
  5
1F4
  8
0
 10
626.3550950235876
 20
1273.981615939864
 30
0.0
  0
VERTEX
  5
1F5
  8
0
 10
626.3412935737507
 20
1273.8112361727
 30
0.0
 42
-0.4142135623730928
  0
VERTEX
  5
1F6
  8
0
 10
623.5610453180087
 20
1271.604333447988
 30
0.0
  0
VERTEX
  5
1F7
  8
0
 10
623.3576574642173
 20
1271.636076955959
 30
0.0
  0
VERTEX
  5
1F8
  8
0
 10
623.1606625364548
 20
1271.683376000235
 30
0.0
  0
VERTEX
  5
1F9
  8
0
 10
622.9706270805734
 20
1271.745517843101
 30
0.0
  0
VERTEX
  5
1FA
  8
0
 10
622.7881176424246
 20
1271.821789746845
 30
0.0
  0
VERTEX
  5
1FB
  8
0
 10
622.6137007678603
 20
1271.911478973755
 30
0.0
  0
VERTEX
  5
1FC
  8
0
 10
622.4479430027327
 20
1272.013872786118
 30
0.0
  0
VERTEX
  5
1FD
  8
0
 10
622.2914108928935
 20
1272.128258446221
 30
0.0
  0
VERTEX
  5
1FE
  8
0
 10
622.1446709841944
 20
1272.25392321635
 30
0.0
  0
VERTEX
  5
1FF
  8
0
 10
622.0082898224874
 20
1272.390154358795
 30
0.0
  0
VERTEX
  5
200
  8
0
 10
621.8828339536244
 20
1272.536239135841
 30
0.0
  0
VERTEX
  5
201
  8
0
 10
621.768869923457
 20
1272.691464809776
 30
0.0
  0
VERTEX
  5
202
  8
0
 10
621.6669642778375
 20
1272.855118642887
 30
0.0
  0
VERTEX
  5
203
  8
0
 10
621.5776835626174
 20
1273.026487897462
 30
0.0
  0
VERTEX
  5
204
  8
0
 10
621.5015943236485
 20
1273.204859835788
 30
0.0
  0
VERTEX
  5
205
  8
0
 10
621.4392631067831
 20
1273.389521720151
 30
0.0
  0
VERTEX
  5
206
  8
0
 10
621.3912564578726
 20
1273.57976081284
 30
0.0
  0
VERTEX
  5
207
  8
0
 10
617.8083168543666
 20
1273.792473372582
 30
0.0
  0
VERTEX
  5
208
  8
0
 10
611.5181499999924
 20
1273.907949999781
 30
0.0
  0
VERTEX
  5
209
  8
0
 10
611.5197687469316
 20
1276.607949514532
 30
0.0
  0
VERTEX
  5
20A
  8
0
 10
609.6000000002394
 20
1276.609100485031
 30
0.0
  0
VERTEX
  5
20B
  8
0
 10
607.680231253068
 20
1276.607949514532
 30
0.0
  0
VERTEX
  5
20C
  8
0
 10
607.6818500000077
 20
1273.907949999782
 30
0.0
  0
VERTEX
  5
20D
  8
0
 10
601.3916831456332
 20
1273.792473372582
 30
0.0
  0
VERTEX
  5
20E
  8
0
 10
597.8087432035647
 20
1273.579759228327
 30
0.0
  0
VERTEX
  5
20F
  8
0
 10
597.760736462302
 20
1273.389520273544
 30
0.0
  0
VERTEX
  5
210
  8
0
 10
597.698405172325
 20
1273.204858527184
 30
0.0
  0
VERTEX
  5
211
  8
0
 10
597.6223158786056
 20
1273.026486725827
 30
0.0
  0
VERTEX
  5
212
  8
0
 10
597.5330351261159
 20
1272.855117606055
 30
0.0
  0
VERTEX
  5
213
  8
0
 10
597.4311294598281
 20
1272.691463904449
 30
0.0
  0
VERTEX
  5
214
  8
0
 10
597.317165424714
 20
1272.536238357591
 30
0.0
  0
VERTEX
  5
215
  8
0
 10
597.1917095657459
 20
1272.390153702061
 30
0.0
  0
VERTEX
  5
216
  8
0
 10
597.0553284278959
 20
1272.253922674441
 30
0.0
  0
VERTEX
  5
217
  8
0
 10
596.908588556136
 20
1272.128258011312
 30
0.0
  0
VERTEX
  5
218
  8
0
 10
596.752056495438
 20
1272.013872449256
 30
0.0
  0
VERTEX
  5
219
  8
0
 10
596.5862987907743
 20
1271.911478724854
 30
0.0
  0
VERTEX
  5
21A
  8
0
 10
596.4118819871169
 20
1271.821789574686
 30
0.0
  0
VERTEX
  5
21B
  8
0
 10
596.2293726294378
 20
1271.745517735334
 30
0.0
  0
VERTEX
  5
21C
  8
0
 10
596.0393372627091
 20
1271.68337594338
 30
0.0
  0
VERTEX
  5
21D
  8
0
 10
595.8423424319028
 20
1271.636076935404
 30
0.0
  0
VERTEX
  5
21E
  8
0
 10
595.6389546819912
 20
1271.604333447988
 30
0.0
 42
-0.4142135623730928
  0
VERTEX
  5
21F
  8
0
 10
592.8587064262495
 20
1273.811236172701
 30
0.0
  0
VERTEX
  5
220
  8
0
 10
592.8448414525819
 20
1273.982431846171
 30
0.0
  0
VERTEX
  5
221
  8
0
 10
592.8425677055368
 20
1274.15183855626
 30
0.0
  0
VERTEX
  5
222
  8
0
 10
592.8515616104542
 20
1274.319043460088
 30
0.0
  0
VERTEX
  5
223
  8
0
 10
592.8714995926741
 20
1274.483633714772
 30
0.0
  0
VERTEX
  5
224
  8
0
 10
592.9020580775369
 20
1274.645196477429
 30
0.0
  0
VERTEX
  5
225
  8
0
 10
592.9429134903826
 20
1274.803318905178
 30
0.0
  0
VERTEX
  5
226
  8
0
 10
592.9937422565514
 20
1274.957588155135
 30
0.0
  0
VERTEX
  5
227
  8
0
 10
593.0542208013833
 20
1275.10759138442
 30
0.0
  0
VERTEX
  5
228
  8
0
 10
593.1240255502186
 20
1275.252915750149
 30
0.0
  0
VERTEX
  5
229
  8
0
 10
593.2028329283972
 20
1275.39314840944
 30
0.0
  0
VERTEX
  5
22A
  8
0
 10
593.2903193612597
 20
1275.52787651941
 30
0.0
  0
VERTEX
  5
22B
  8
0
 10
593.3861612741456
 20
1275.656687237179
 30
0.0
  0
VERTEX
  5
22C
  8
0
 10
593.4900350923956
 20
1275.779167719863
 30
0.0
  0
VERTEX
  5
22D
  8
0
 10
593.6016172413495
 20
1275.89490512458
 30
0.0
  0
VERTEX
  5
22E
  8
0
 10
593.7205841463474
 20
1276.003486608449
 30
0.0
  0
VERTEX
  5
22F
  8
0
 10
593.8466122327297
 20
1276.104499328585
 30
0.0
  0
VERTEX
  5
230
  8
0
 10
593.8543965984627
 20
1276.232581359772
 30
0.0
  0
VERTEX
  5
231
  8
0
 10
593.7788746987134
 20
1276.537749999771
 30
0.0
  0
VERTEX
  5
232
  8
0
 10
593.4966500000645
 20
1277.204849999768
 30
0.0
  0
VERTEX
  5
233
  8
0
 10
593.1409878624656
 20
1277.640185999766
 30
0.0
  0
VERTEX
  5
234
  8
0
 10
592.4543574906187
 20
1277.807849999766
 30
0.0
  0
VERTEX
  5
235
  8
0
 10
585.9598500000945
 20
1276.95184999977
 30
0.0
  0
VERTEX
  5
236
  8
0
 10
585.4441724640965
 20
1276.73008246697
 30
0.0
  0
VERTEX
  5
237
  8
0
 10
585.0937686989981
 20
1276.117349999772
 30
0.0
  0
VERTEX
  5
238
  8
0
 10
584.979150000098
 20
1275.400749999776
 30
0.0
  0
VERTEX
  5
239
  8
0
 10
584.9706332896983
 20
1275.152495311776
 30
0.0
  0
VERTEX
  5
23A
  8
0
 10
585.0220393089564
 20
1274.959860982872
 30
0.0
  0
VERTEX
  5
23B
  8
0
 10
585.1730398716725
 20
1274.896088795091
 30
0.0
  0
VERTEX
  5
23C
  8
0
 10
585.3191436822062
 20
1274.822846221331
 30
0.0
  0
VERTEX
  5
23D
  8
0
 10
585.4599121191495
 20
1274.740461623281
 30
0.0
  0
VERTEX
  5
23E
  8
0
 10
585.5949065610948
 20
1274.649263362633
 30
0.0
  0
VERTEX
  5
23F
  8
0
 10
585.7236883866342
 20
1274.549579801077
 30
0.0
  0
VERTEX
  5
240
  8
0
 10
585.8458189743602
 20
1274.441739300305
 30
0.0
  0
VERTEX
  5
241
  8
0
 10
585.9608597028649
 20
1274.326070222008
 30
0.0
  0
VERTEX
  5
242
  8
0
 10
586.0683719507408
 20
1274.202900927876
 30
0.0
  0
VERTEX
  5
243
  8
0
 10
586.1679170965798
 20
1274.072559779601
 30
0.0
  0
VERTEX
  5
244
  8
0
 10
586.2590565189744
 20
1273.935375138873
 30
0.0
  0
VERTEX
  5
245
  8
0
 10
586.3413515965167
 20
1273.791675367383
 30
0.0
  0
VERTEX
  5
246
  8
0
 10
586.4143637077991
 20
1273.641788826822
 30
0.0
  0
VERTEX
  5
247
  8
0
 10
586.4776542314137
 20
1273.486043878881
 30
0.0
  0
VERTEX
  5
248
  8
0
 10
586.530784545953
 20
1273.324768885251
 30
0.0
  0
VERTEX
  5
249
  8
0
 10
586.573316030009
 20
1273.158292207623
 30
0.0
  0
VERTEX
  5
24A
  8
0
 10
586.6048100621742
 20
1272.986942207688
 30
0.0
 42
-0.4142135623730928
  0
VERTEX
  5
24B
  8
0
 10
584.4913390841298
 20
1270.135023480785
 30
0.0
  0
VERTEX
  5
24C
  8
0
 10
584.2799764708293
 20
1270.112544927883
 30
0.0
  0
VERTEX
  5
24D
  8
0
 10
584.0709269237653
 20
1270.107842372644
 30
0.0
  0
VERTEX
  5
24E
  8
0
 10
583.8649969836281
 20
1270.120318518859
 30
0.0
  0
VERTEX
  5
24F
  8
0
 10
583.662993191107
 20
1270.149376070317
 30
0.0
  0
VERTEX
  5
250
  8
0
 10
583.4657220868924
 20
1270.19441773081
 30
0.0
  0
VERTEX
  5
251
  8
0
 10
583.2739902116741
 20
1270.254846204127
 30
0.0
  0
VERTEX
  5
252
  8
0
 10
583.0886041061422
 20
1270.330064194059
 30
0.0
  0
VERTEX
  5
253
  8
0
 10
582.9103703109862
 20
1270.419474404395
 30
0.0
  0
VERTEX
  5
254
  8
0
 10
582.7400953668963
 20
1270.522479538927
 30
0.0
  0
VERTEX
  5
255
  8
0
 10
582.5785858145624
 20
1270.638482301445
 30
0.0
  0
VERTEX
  5
256
  8
0
 10
582.4266481946744
 20
1270.766885395738
 30
0.0
  0
VERTEX
  5
257
  8
0
 10
582.285089047922
 20
1270.907091525596
 30
0.0
  0
VERTEX
  5
258
  8
0
 10
582.1547149149955
 20
1271.058503394811
 30
0.0
  0
VERTEX
  5
259
  8
0
 10
582.0363323365845
 20
1271.220523707173
 30
0.0
  0
VERTEX
  5
25A
  8
0
 10
581.930747853379
 20
1271.392555166472
 30
0.0
  0
VERTEX
  5
25B
  8
0
 10
581.8387680060691
 20
1271.574000476497
 30
0.0
  0
VERTEX
  5
25C
  8
0
 10
578.5070500001247
 20
1270.787249999793
 30
0.0
  0
VERTEX
  5
25D
  8
0
 10
575.6609957473354
 20
1269.960617916597
 30
0.0
  0
VERTEX
  5
25E
  8
0
 10
572.0847926286502
 20
1268.729949999801
 30
0.0
  0
VERTEX
  5
25F
  8
0
 10
568.5467500001639
 20
1267.282149999808
 30
0.0
  0
VERTEX
  5
260
  8
0
 10
562.8616469985867
 20
1264.397233961419
 30
0.0
  0
VERTEX
  5
261
  8
0
 10
559.3780071026252
 20
1262.034211040271
 30
0.0
  0
VERTEX
  5
262
  8
0
 10
559.4360203087194
 20
1261.85250527417
 30
0.0
  0
VERTEX
  5
263
  8
0
 10
559.4797952983818
 20
1261.668008821951
 30
0.0
  0
VERTEX
  5
264
  8
0
 10
559.509403494505
 20
1261.481560980176
 30
0.0
  0
VERTEX
  5
265
  8
0
 10
559.5249163199812
 20
1261.294001045402
 30
0.0
  0
VERTEX
  5
266
  8
0
 10
559.526405197703
 20
1261.106168314189
 30
0.0
  0
VERTEX
  5
267
  8
0
 10
559.5139415505623
 20
1260.918902083095
 30
0.0
  0
VERTEX
  5
268
  8
0
 10
559.4875968014517
 20
1260.73304164868
 30
0.0
  0
VERTEX
  5
269
  8
0
 10
559.4474423732634
 20
1260.549426307502
 30
0.0
  0
VERTEX
  5
26A
  8
0
 10
559.3935496888898
 20
1260.368895356121
 30
0.0
  0
VERTEX
  5
26B
  8
0
 10
559.3259901712233
 20
1260.192288091095
 30
0.0
  0
VERTEX
  5
26C
  8
0
 10
559.2448352431562
 20
1260.020443808983
 30
0.0
  0
VERTEX
  5
26D
  8
0
 10
559.150156327581
 20
1259.854201806344
 30
0.0
  0
VERTEX
  5
26E
  8
0
 10
559.0420248473897
 20
1259.694401379738
 30
0.0
  0
VERTEX
  5
26F
  8
0
 10
558.9205122254749
 20
1259.541881825722
 30
0.0
  0
VERTEX
  5
270
  8
0
 10
558.7856898847288
 20
1259.397482440857
 30
0.0
  0
VERTEX
  5
271
  8
0
 10
558.6376292480437
 20
1259.2620425217
 30
0.0
 42
-0.4142135623730974
  0
VERTEX
  5
272
  8
0
 10
555.1004181260761
 20
1259.559258736824
 30
0.0
  0
VERTEX
  5
273
  8
0
 10
554.9755225132477
 20
1259.719615314941
 30
0.0
  0
VERTEX
  5
274
  8
0
 10
554.8655550620072
 20
1259.886758841618
 30
0.0
  0
VERTEX
  5
275
  8
0
 10
554.770442944104
 20
1260.059816218669
 30
0.0
  0
VERTEX
  5
276
  8
0
 10
554.6901133312879
 20
1260.237914347905
 30
0.0
  0
VERTEX
  5
277
  8
0
 10
554.624493395308
 20
1260.420180131139
 30
0.0
  0
VERTEX
  5
278
  8
0
 10
554.5735103079143
 20
1260.605740470184
 30
0.0
  0
VERTEX
  5
279
  8
0
 10
554.5370912408562
 20
1260.793722266853
 30
0.0
  0
VERTEX
  5
27A
  8
0
 10
554.515163365883
 20
1260.983252422956
 30
0.0
  0
VERTEX
  5
27B
  8
0
 10
554.5076538547447
 20
1261.173457840308
 30
0.0
  0
VERTEX
  5
27C
  8
0
 10
554.5144898791906
 20
1261.363465420721
 30
0.0
  0
VERTEX
  5
27D
  8
0
 10
554.5355986109703
 20
1261.552402066008
 30
0.0
  0
VERTEX
  5
27E
  8
0
 10
554.5709072218332
 20
1261.739394677979
 30
0.0
  0
VERTEX
  5
27F
  8
0
 10
554.6203428835289
 20
1261.923570158449
 30
0.0
  0
VERTEX
  5
280
  8
0
 10
554.6838327678072
 20
1262.10405540923
 30
0.0
  0
VERTEX
  5
281
  8
0
 10
554.7613040464175
 20
1262.279977332134
 30
0.0
  0
VERTEX
  5
282
  8
0
 10
554.8526838911093
 20
1262.450462828974
 30
0.0
  0
VERTEX
  5
283
  8
0
 10
554.6939690256197
 20
1262.589349999827
 30
0.0
  0
VERTEX
  5
284
  8
0
 10
554.0793500002221
 20
1262.972949999825
 30
0.0
  0
VERTEX
  5
285
  8
0
 10
553.5381343010243
 20
1263.124592303824
 30
0.0
  0
VERTEX
  5
286
  8
0
 10
552.8798555414768
 20
1262.867149999826
 30
0.0
  0
VERTEX
  5
287
  8
0
 10
548.0578500002457
 20
1258.433349999843
 30
0.0
  0
VERTEX
  5
288
  8
0
 10
547.7634957730476
 20
1257.955432700644
 30
0.0
  0
VERTEX
  5
289
  8
0
 10
547.8290663469969
 20
1257.252549999848
 30
0.0
  0
VERTEX
  5
28A
  8
0
 10
548.147050000246
 20
1256.600349999851
 30
0.0
  0
SEQEND
  5
292
  8
0
  0
ENDSEC
  0
EOF
