  0
SECTION
  2
HEADER
  9
$ACADVER
  1
AC1009
  9
$EXTMIN
 10
0.0
 20
0.0
 30
0.0
  9
$EXTMAX
 10
1000.0
 20
1000.0
 30
0.0
  9
$FILLMODE
 70
 0
  9
$SPLFRAME
 70
 1
  0
ENDSEC
  0
SECTION
  2
TABLES
  0
TABLE
  2
LAYER
 70
1
  0
LAYER
  2
0
 70
     0
 62
     7
  6
CONTINUOUS
  0
ENDTAB
  0
ENDSEC
  0
SECTION
  2
ENTITIES
  0
LINE
  8
0
 62
     0
 10
197.232
 20
150.169
 30
0.0
 11
202.857
 21
150.169
 31
0.0
  0
LINE
  8
0
 62
     0
 10
202.857
 20
150.169
 30
0.0
 11
202.857
 21
146.644
 31
0.0
  0
LINE
  8
0
 62
     0
 10
202.857
 20
146.644
 30
0.0
 11
197.232
 21
146.644
 31
0.0
  0
LINE
  8
0
 62
     0
 10
197.232
 20
146.644
 30
0.0
 11
197.232
 21
150.169
 31
0.0
  0
LINE
  8
0
 62
     0
 10
212.223
 20
150.169
 30
0.0
 11
217.848
 21
150.169
 31
0.0
  0
LINE
  8
0
 62
     0
 10
217.848
 20
150.169
 30
0.0
 11
217.848
 21
146.644
 31
0.0
  0
LINE
  8
0
 62
     0
 10
217.848
 20
146.644
 30
0.0
 11
212.223
 21
146.644
 31
0.0
  0
LINE
  8
0
 62
     0
 10
212.223
 20
146.644
 30
0.0
 11
212.223
 21
150.169
 31
0.0
  0
LINE
  8
0
 62
     0
 10
153.632
 20
146.644
 30
0.0
 11
159.257
 21
146.644
 31
0.0
  0
LINE
  8
0
 62
     0
 10
159.257
 20
146.644
 30
0.0
 11
159.257
 21
150.169
 31
0.0
  0
LINE
  8
0
 62
     0
 10
159.257
 20
150.169
 30
0.0
 11
153.632
 21
150.169
 31
0.0
  0
LINE
  8
0
 62
     0
 10
153.632
 20
150.169
 30
0.0
 11
153.632
 21
146.644
 31
0.0
  0
LINE
  8
0
 62
     0
 10
123.649
 20
146.644
 30
0.0
 11
129.274
 21
146.644
 31
0.0
  0
LINE
  8
0
 62
     0
 10
129.274
 20
146.644
 30
0.0
 11
129.274
 21
150.169
 31
0.0
  0
LINE
  8
0
 62
     0
 10
129.274
 20
150.169
 30
0.0
 11
123.649
 21
150.169
 31
0.0
  0
LINE
  8
0
 62
     0
 10
123.649
 20
150.169
 30
0.0
 11
123.649
 21
146.644
 31
0.0
  0
LINE
  8
0
 62
     0
 10
93.6639
 20
146.644
 30
0.0
 11
99.289
 21
146.644
 31
0.0
  0
LINE
  8
0
 62
     0
 10
99.289
 20
146.644
 30
0.0
 11
99.289
 21
150.169
 31
0.0
  0
LINE
  8
0
 62
     0
 10
99.289
 20
150.169
 30
0.0
 11
93.6639
 21
150.169
 31
0.0
  0
LINE
  8
0
 62
     0
 10
93.6639
 20
150.169
 30
0.0
 11
93.6639
 21
146.644
 31
0.0
  0
LINE
  8
0
 62
     0
 10
63.6806
 20
146.644
 30
0.0
 11
69.3057
 21
146.644
 31
0.0
  0
LINE
  8
0
 62
     0
 10
69.3057
 20
146.644
 30
0.0
 11
69.3057
 21
150.169
 31
0.0
  0
LINE
  8
0
 62
     0
 10
69.3057
 20
150.169
 30
0.0
 11
63.6806
 21
150.169
 31
0.0
  0
LINE
  8
0
 62
     0
 10
63.6806
 20
150.169
 30
0.0
 11
63.6806
 21
146.644
 31
0.0
  0
LINE
  8
0
 62
     0
 10
0.0937066
 20
0.0937066
 30
0.0
 11
222.844
 21
0.0937066
 31
0.0
  0
LINE
  8
0
 62
     0
 10
0.0937066
 20
157.594
 30
0.0
 11
0.0937066
 21
0.0937066
 31
0.0
  0
LINE
  8
0
 62
     0
 10
222.844
 20
157.594
 30
0.0
 11
0.0937066
 21
157.594
 31
0.0
  0
LINE
  8
0
 62
     0
 10
222.844
 20
0.0937066
 30
0.0
 11
222.844
 21
157.594
 31
0.0
  0
LINE
  8
0
 62
     0
 10
5.0891
 20
150.169
 30
0.0
 11
10.7142
 21
150.169
 31
0.0
  0
LINE
  8
0
 62
     0
 10
10.7142
 20
150.169
 30
0.0
 11
10.7142
 21
146.644
 31
0.0
  0
LINE
  8
0
 62
     0
 10
10.7142
 20
146.644
 30
0.0
 11
5.0891
 21
146.644
 31
0.0
  0
LINE
  8
0
 62
     0
 10
5.0891
 20
146.644
 30
0.0
 11
5.0891
 21
150.169
 31
0.0
  0
LINE
  8
0
 62
     0
 10
20.0808
 20
150.169
 30
0.0
 11
25.7059
 21
150.169
 31
0.0
  0
LINE
  8
0
 62
     0
 10
25.7059
 20
150.169
 30
0.0
 11
25.7059
 21
146.644
 31
0.0
  0
LINE
  8
0
 62
     0
 10
25.7059
 20
146.644
 30
0.0
 11
20.0808
 21
146.644
 31
0.0
  0
LINE
  8
0
 62
     0
 10
20.0808
 20
146.644
 30
0.0
 11
20.0808
 21
150.169
 31
0.0
  0
ENDSEC
  0
EOF
